<svg width="494" height="415" viewBox="0 0 494 415" fill="none" xmlns="http://www.w3.org/2000/svg">
<g clip-path="url(#clip0_1_1436)">
<path d="M473.585 388.616C471.93 404.249 424.296 416.571 342.269 411.054C260.242 405.536 175.273 418.962 74.1184 413.445C-27.0358 407.927 -0.91961 388.616 16.7364 380.34C18.7595 379.42 20.7826 378.5 23.1735 377.765C41.5651 371.328 67.8652 368.385 56.8302 365.626C44.3239 362.5 56.2785 352.016 105.568 346.867C154.858 341.717 223.091 343.924 230.264 343.188C328.291 334.36 375.374 355.143 409.766 359.925C444.159 364.523 475.241 372.983 473.585 388.616Z" fill="#C17536"/>
<path d="M473.585 388.616C471.93 404.249 424.296 416.571 342.269 411.054C260.242 405.536 175.273 418.962 74.1184 413.445C-27.0358 407.927 -0.91961 388.616 16.7364 380.34C18.7595 379.42 20.7826 378.5 23.1735 377.765C21.3343 381.627 12.8741 395.237 26.1161 397.996C41.7491 401.306 56.8302 395.237 61.796 397.628C66.7617 400.019 66.7617 406.088 81.2911 406.088C95.8206 406.088 103.913 402.777 106.856 402.41C109.798 402.042 111.453 405.72 120.281 406.824C129.109 408.111 136.466 401.122 140.696 401.49C144.926 401.858 147.685 403.881 154.306 406.824C160.927 409.582 169.939 404.065 174.905 404.8C179.87 405.536 192.745 407.191 201.021 407.559C209.297 407.927 227.689 398.179 244.425 401.122C261.162 403.881 333.993 403.513 369.672 402.41C405.352 401.306 408.111 390.639 383.65 386.225C359.189 381.811 330.682 378.133 351.833 377.765C372.983 377.397 373.535 379.42 411.973 382.179C450.412 384.938 467.7 378.868 453.171 374.822C438.641 370.776 450.964 372.063 427.606 365.075C422.273 363.419 416.019 361.764 409.766 360.109C444.159 364.523 475.241 372.983 473.585 388.616Z" fill="#AF5D20"/>
<path d="M232.838 352.384C232.654 352.384 226.769 354.591 221.436 360.476C219.229 363.051 216.838 363.971 214.631 364.89C213.527 365.258 212.608 365.626 211.688 366.362C211.136 366.73 210.768 367.097 210.401 367.465C210.033 368.017 209.665 368.569 209.665 369.121C209.481 370.04 209.481 370.592 209.297 371.144C209.113 371.879 208.745 372.615 208.01 373.535C207.274 374.454 205.803 375.558 203.596 377.213C202.124 378.316 201.021 378.868 200.285 379.236C199.733 379.604 199.182 379.788 198.814 379.972C198.078 380.339 197.342 380.891 196.607 381.627C195.871 382.363 195.319 383.466 194.584 385.121C193.112 388.064 192.009 389.719 190.721 391.19C189.434 392.478 187.779 393.581 185.204 395.053C179.686 398.179 176.376 401.858 176.192 401.858C175.64 402.593 175.64 403.513 176.376 404.065C177.112 404.616 178.031 404.616 178.583 403.881C178.951 403.513 181.893 400.386 186.675 397.811C189.434 396.34 191.273 395.053 192.928 393.214C194.584 391.558 195.871 389.351 197.342 386.409C198.078 384.937 198.63 384.018 198.998 383.65C199.182 383.282 199.366 383.098 199.549 383.098C199.733 382.914 200.285 382.73 201.389 382.179C202.308 381.627 203.596 381.075 205.435 379.604C208.561 377.397 210.401 375.742 211.32 374.086C211.872 373.351 212.24 372.431 212.424 371.695C212.608 370.96 212.791 370.224 212.975 369.304C212.975 369.121 212.975 369.121 213.159 368.937C213.343 368.753 213.711 368.385 214.263 368.201C216.286 367.281 220.516 366.178 224.01 362.132C226.401 359.557 228.976 357.718 230.815 356.43C231.735 355.879 232.654 355.511 233.206 355.143C233.574 354.959 233.758 354.959 233.942 354.775H234.126C235.045 354.407 235.413 353.488 235.045 352.752C234.494 352.568 233.574 352.2 232.838 352.384Z" fill="#935324"/>
<path d="M255.46 349.074C253.989 349.626 252.885 350.361 251.966 351.281C250.494 352.752 249.575 354.407 248.287 356.063C247 357.718 245.713 359.189 243.689 360.477C240.747 362.316 238.724 363.419 237.068 364.891C235.413 366.362 234.126 368.201 233.022 370.592C232.103 372.799 230.999 374.822 229.528 376.477C228.057 378.133 226.217 379.604 223.643 380.707C220.516 381.995 218.493 384.386 217.022 386.593C215.55 388.984 214.263 391.558 212.424 393.765C210.768 395.972 208.929 396.892 207.09 397.628C206.17 397.995 205.067 398.547 204.147 399.099C203.228 399.651 202.308 400.57 201.573 401.858C201.205 402.593 201.389 403.697 202.308 404.065C203.044 404.433 204.147 404.249 204.515 403.329C204.883 402.593 205.435 402.226 205.987 401.674C206.906 400.938 208.377 400.57 210.033 399.651C211.688 398.731 213.527 397.628 214.998 395.421C217.022 392.662 218.309 390.087 219.78 388.064C221.252 385.857 222.539 384.386 225.114 383.282C228.057 381.995 230.447 380.34 232.287 378.316C234.126 376.293 235.413 373.902 236.333 371.512C237.252 369.305 238.172 368.017 239.459 366.914C240.747 365.81 242.77 364.523 245.713 362.867C249.023 360.844 250.862 358.27 252.517 356.063C253.253 354.959 253.989 354.04 254.724 353.304C255.46 352.568 256.196 352.016 256.931 351.833C257.851 351.465 258.219 350.545 258.035 349.809C257.115 349.258 256.196 348.89 255.46 349.074Z" fill="#935324"/>
<path d="M283.783 346.131C281.576 346.131 279.001 347.051 276.611 349.074C274.22 350.913 272.197 353.856 270.725 357.534C270.173 359.189 269.438 360.293 268.702 361.212C267.599 362.684 266.127 363.419 264.472 364.339C262.817 365.258 260.978 365.994 259.138 367.465C257.851 368.385 256.931 369.489 256.196 370.776C255.092 372.615 254.357 374.454 253.805 376.11C253.069 377.765 252.334 379.236 251.046 380.523C250.31 381.259 249.207 381.995 247.736 382.547C245.713 383.466 243.138 384.386 240.747 385.489C239.643 386.041 238.356 386.593 237.436 387.328C236.333 388.064 235.413 388.984 234.861 390.087C233.39 392.846 232.838 395.789 231.919 398.363C231.551 399.651 230.999 400.57 230.447 401.49C229.896 402.226 229.16 402.961 228.057 403.329C227.137 403.697 226.769 404.616 227.137 405.352C227.505 406.272 228.424 406.64 229.16 406.272C230.815 405.72 232.103 404.616 233.022 403.329C234.494 401.49 235.045 399.283 235.597 397.26C236.149 395.237 236.701 393.214 237.62 391.742C238.172 390.823 238.908 390.087 240.195 389.351C242.034 388.248 244.425 387.328 246.816 386.409C249.207 385.489 251.598 384.386 253.437 382.547C255.644 380.34 256.564 377.765 257.483 375.374C258.035 374.27 258.403 373.167 258.955 372.247C259.506 371.328 260.242 370.592 261.162 369.856C263.185 368.385 265.392 367.465 267.783 365.994C268.886 365.258 270.173 364.339 271.093 363.051C272.197 361.764 273.116 360.293 273.852 358.454C275.139 355.143 276.978 352.752 278.818 351.281C280.657 349.81 282.68 349.074 283.967 349.074C284.887 349.074 285.622 348.338 285.622 347.419C285.255 346.867 284.703 346.131 283.783 346.131Z" fill="#935324"/>
<path d="M300.52 347.051C299.784 347.235 299.048 347.602 298.497 347.97C297.393 348.706 296.841 349.809 296.29 350.729C295.37 352.384 294.818 354.223 294.083 356.063C293.347 357.902 292.427 359.741 291.324 361.212C289.669 363.235 287.278 364.523 284.519 365.626C283.232 366.178 281.944 366.914 280.657 367.649C279.369 368.569 278.45 369.672 277.714 371.144C276.611 373.719 275.507 377.213 274.22 380.523C273.484 382.179 272.748 383.65 272.013 384.937C271.277 386.225 270.357 387.328 269.438 387.88C267.231 389.351 265.024 390.087 262.817 391.007C261.713 391.558 260.61 392.11 259.69 393.03C258.771 393.949 258.035 395.053 257.667 396.524C257.115 398.547 255.828 401.122 254.541 403.145C253.989 404.065 253.253 404.984 252.885 405.536C252.701 405.904 252.517 406.088 252.334 406.272L252.15 406.456C251.598 407.191 251.782 408.111 252.334 408.663C253.069 409.214 253.989 409.03 254.541 408.479C254.541 408.479 255.828 407.007 257.115 404.8C258.403 402.593 260.058 399.835 260.794 397.26C260.978 396.34 261.345 395.788 261.897 395.237C262.633 394.501 263.92 393.949 265.576 393.214C267.231 392.478 269.07 391.742 271.093 390.455C272.564 389.535 273.668 388.064 274.587 386.593C276.059 384.202 277.162 381.627 278.082 379.052C279.001 376.477 279.737 374.086 280.473 372.431C280.841 371.512 281.392 370.96 282.312 370.224C283.599 369.305 285.622 368.569 287.646 367.465C289.669 366.362 291.876 365.074 293.531 362.867C295.738 360.109 296.657 356.798 297.761 354.223C298.313 352.936 298.864 351.832 299.232 351.097C299.416 350.729 299.784 350.545 299.968 350.361C300.152 350.177 300.52 349.993 300.704 349.993C301.623 349.809 302.175 348.89 301.991 348.154C302.175 347.419 301.439 346.867 300.52 347.051Z" fill="#935324"/>
<path d="M130.765 354.04C130.581 354.04 123.04 355.879 115.316 361.212C112.005 363.419 108.879 364.339 106.12 365.075C104.832 365.442 103.545 365.81 102.258 366.362C101.706 366.546 100.97 366.914 100.418 367.465C99.8667 367.833 99.3149 368.385 98.9471 368.937C98.5793 369.673 98.2114 370.224 97.8436 370.776C97.2918 371.512 96.924 372.063 95.6366 372.799C94.5331 373.535 92.51 374.638 89.3834 376.11C87.3603 377.029 85.889 377.581 84.9694 377.949C84.2338 378.133 83.682 378.317 82.9464 378.501C82.0268 378.868 80.9233 379.236 80.0037 379.972C79.0841 380.708 77.9806 381.627 76.5093 383.098C73.9344 385.673 72.2792 387.145 70.2561 388.432C68.4169 389.719 66.2099 390.639 62.7155 391.927C55.3589 394.685 50.577 397.812 50.3931 397.996C49.4735 398.548 49.2896 399.467 49.8414 400.019C50.3931 400.571 51.6805 400.571 52.6001 400.019C52.9679 399.651 57.5659 396.892 63.819 394.685C67.3134 393.398 70.0722 392.294 72.4631 390.639C74.854 389.168 76.8771 387.329 79.4519 384.57C80.7394 383.282 81.475 382.547 82.0268 382.179C82.3946 381.811 82.5785 381.811 82.9464 381.627C83.3142 381.443 84.0499 381.259 85.3373 380.891C86.6247 380.524 88.2799 379.788 90.8548 378.684C95.0849 376.661 97.6597 375.374 99.3149 373.903C100.235 373.167 100.786 372.431 101.154 371.879C101.706 371.144 101.89 370.592 102.442 369.856C102.442 369.673 102.625 369.672 102.625 369.489C102.809 369.305 103.361 369.121 104.281 368.753C106.856 367.833 112.005 366.914 117.339 363.419C120.833 361.028 124.328 359.557 126.902 358.454C128.19 357.902 129.293 357.534 130.029 357.35C130.397 357.166 130.765 357.166 130.949 357.166H131.132C132.236 356.982 132.972 356.063 132.788 355.327C132.788 354.04 131.868 353.672 130.765 354.04Z" fill="#935324"/>
<path d="M157.984 351.097C156.145 351.465 154.674 352.2 153.386 353.12C151.363 354.407 149.524 355.879 147.685 357.35C145.846 358.821 143.639 360.109 141.064 361.212C137.202 362.684 134.443 363.787 132.052 365.075C129.661 366.362 127.822 368.017 125.799 370.04C123.96 372.063 122.121 373.719 119.914 375.19C117.707 376.661 115.132 377.949 111.821 378.868C107.775 379.972 104.832 381.995 102.442 384.018C100.051 386.041 97.8436 388.248 95.0848 390.455C92.51 392.478 90.1191 393.214 87.7282 393.949C86.4408 394.317 85.3373 394.685 83.8659 395.237C82.5785 395.789 81.2911 396.524 80.1876 397.628C79.4519 398.363 79.4519 399.099 80.3715 399.651C81.2911 400.203 82.3946 399.835 83.1303 399.099C83.8659 398.547 84.4177 398.18 85.3373 397.628C86.6247 397.076 88.4638 396.524 90.4869 395.789C92.6939 395.053 95.0848 393.949 97.4758 392.11C100.602 389.719 102.809 387.512 105.016 385.489C107.223 383.65 109.43 382.179 112.373 381.259C116.235 380.156 119.362 378.684 121.937 376.845C124.512 375.006 126.718 372.983 128.558 370.96C130.397 368.937 131.684 368.017 133.523 366.914C135.363 365.81 137.937 364.891 141.984 363.235C146.398 361.58 149.34 359.189 151.731 357.166C153.019 356.247 154.122 355.327 155.042 354.775C156.145 354.223 157.065 353.672 157.984 353.488C159.088 353.304 159.823 352.384 159.823 351.649C159.823 351.281 158.904 350.913 157.984 351.097Z" fill="#935324"/>
<path d="M191.457 348.338C188.882 348.338 185.756 349.258 182.445 350.913C179.135 352.568 175.824 355.143 173.065 358.453C171.962 359.925 170.675 360.844 169.571 361.764C167.732 363.051 165.893 363.787 163.87 364.523C161.847 365.258 159.456 365.994 156.881 367.281C155.042 368.201 153.754 369.121 152.467 370.224C150.628 371.695 149.34 373.351 148.053 374.822C146.765 376.293 145.478 377.581 143.639 378.684C142.535 379.42 141.064 379.972 139.225 380.523C136.466 381.443 133.34 382.179 130.213 383.098C128.742 383.65 127.27 384.202 125.799 384.753C124.328 385.489 123.04 386.225 121.937 387.144C119.362 389.535 117.891 392.294 116.235 394.317C115.316 395.421 114.58 396.34 113.66 397.076C112.741 397.812 111.637 398.363 110.35 398.731C109.246 398.915 108.511 399.835 108.695 400.57C108.879 401.306 109.798 401.674 110.902 401.49C113.109 400.938 114.948 400.019 116.235 398.915C118.442 397.26 119.73 395.421 121.017 393.581C122.305 391.742 123.408 390.087 124.879 388.616C125.615 387.88 126.902 387.144 128.374 386.593C130.765 385.673 133.891 384.753 136.834 384.018C139.961 383.098 142.903 382.179 145.478 380.707C148.605 378.684 150.628 376.477 152.283 374.454C153.203 373.535 153.938 372.615 154.858 371.695C155.777 370.96 156.697 370.224 157.984 369.672C160.743 368.385 163.686 367.649 166.812 366.362C168.284 365.626 169.939 364.891 171.594 363.787C173.066 362.684 174.721 361.396 176.008 359.741C178.399 356.798 181.158 354.775 183.733 353.488C186.308 352.2 188.698 351.649 190.17 351.649C191.273 351.649 192.193 351.097 192.561 350.177C193.112 349.074 192.561 348.338 191.457 348.338Z" fill="#935324"/>
<path d="M210.584 349.258C209.665 349.442 208.745 349.626 208.01 349.993C206.538 350.729 205.619 351.465 204.515 352.568C203.044 354.04 201.756 355.695 200.469 357.35C198.998 359.005 197.526 360.477 195.871 361.764C193.48 363.603 190.17 364.707 186.859 365.626C185.204 366.178 183.549 366.73 181.893 367.465C180.238 368.201 178.767 369.121 177.479 370.592C175.456 372.799 173.249 375.926 170.858 378.684C169.571 380.156 168.284 381.443 166.996 382.547C165.709 383.65 164.421 384.57 163.134 385.122C160.191 386.409 157.433 386.961 154.674 387.88C153.202 388.248 151.915 388.8 150.628 389.536C149.34 390.271 148.237 391.375 147.317 392.662C146.214 394.501 143.823 396.708 141.8 398.548C140.696 399.467 139.777 400.203 139.041 400.755C138.673 400.938 138.489 401.306 138.305 401.306L138.121 401.49C137.202 402.042 137.018 402.962 137.754 403.513C138.489 404.065 139.593 403.881 140.512 403.329C140.512 403.329 142.351 402.042 144.558 400.019C146.765 398.18 149.34 395.789 150.995 393.398C151.547 392.662 152.099 392.11 152.835 391.743C153.938 391.007 155.593 390.639 157.616 389.903C159.64 389.352 162.214 388.616 164.789 387.512C166.812 386.593 168.468 385.489 169.939 384.018C172.33 381.995 174.353 379.604 176.192 377.397C178.031 375.19 179.686 372.983 180.974 371.512C181.709 370.776 182.445 370.224 183.733 369.672C185.572 368.753 187.963 368.201 190.721 367.282C193.296 366.362 196.239 365.258 198.814 363.235C202.124 360.844 204.331 357.902 206.17 355.511C207.09 354.407 208.01 353.488 208.929 352.752C209.297 352.384 209.665 352.2 210.033 352.016C210.4 351.833 210.584 351.833 210.952 351.649C212.056 351.465 212.975 350.729 212.975 349.993C212.424 349.626 211.688 349.074 210.584 349.258Z" fill="#935324"/>
<path d="M322.59 357.35C322.59 357.35 312.474 356.247 311.923 349.074C311.371 341.901 322.958 349.074 322.59 357.35Z" fill="#306F54"/>
<path d="M314.497 349.074C314.497 349.074 319.279 352.752 322.774 357.35C322.59 357.35 320.751 351.465 314.497 349.074Z" fill="#59A780"/>
<path d="M322.59 357.35C322.59 357.35 331.785 356.431 332.337 349.809C332.889 343.372 322.406 349.81 322.59 357.35Z" fill="#306F54"/>
<path d="M330.13 349.993C330.13 349.993 325.716 353.304 322.774 357.35C322.59 357.35 324.429 352.016 330.13 349.993Z" fill="#59A780"/>
<path d="M311.371 373.167C311.371 373.167 301.255 372.063 300.704 364.891C299.968 357.718 311.555 364.891 311.371 373.167Z" fill="#306F54"/>
<path d="M303.278 364.891C303.278 364.891 308.06 368.569 311.555 373.167C311.371 373.167 309.532 367.282 303.278 364.891Z" fill="#59A780"/>
<path d="M311.371 373.167C311.371 373.167 320.567 372.247 321.118 365.626C321.67 359.189 311.187 365.626 311.371 373.167Z" fill="#306F54"/>
<path d="M318.727 365.81C318.727 365.81 314.313 369.121 311.371 373.167C311.371 373.167 313.026 367.833 318.727 365.81Z" fill="#59A780"/>
<path d="M300.152 388.984C300.152 388.984 290.036 387.88 289.485 380.707C288.749 373.535 300.336 380.707 300.152 388.984Z" fill="#306F54"/>
<path d="M291.876 380.891C291.876 380.891 296.657 384.57 300.152 389.168C300.152 388.984 298.313 383.098 291.876 380.891Z" fill="#59A780"/>
<path d="M300.152 388.984C300.152 388.984 309.348 388.064 309.899 381.443C310.451 375.006 299.968 381.627 300.152 388.984Z" fill="#306F54"/>
<path d="M307.509 381.627C307.509 381.627 303.095 384.937 300.152 388.984C300.152 388.984 301.807 383.65 307.509 381.627Z" fill="#59A780"/>
<path d="M288.933 404.8C288.933 404.8 278.818 403.697 278.266 396.524C277.53 389.352 289.117 396.524 288.933 404.8Z" fill="#306F54"/>
<path d="M280.657 396.708C280.657 396.708 285.439 400.386 288.933 404.984C288.933 404.801 287.094 398.915 280.657 396.708Z" fill="#59A780"/>
<path d="M288.933 404.8C288.933 404.8 298.129 403.881 298.68 397.26C299.232 390.639 288.749 397.444 288.933 404.8Z" fill="#306F54"/>
<path d="M296.29 397.444C296.29 397.444 291.876 400.754 288.933 404.8C288.933 404.8 290.588 399.467 296.29 397.444Z" fill="#59A780"/>
<path d="M332.889 124.328C332.153 126.535 331.602 128.558 330.866 130.213C327.923 137.754 325.348 140.144 325.348 140.144L314.865 129.293C314.865 129.293 308.244 131.316 305.853 128.926C303.462 126.719 299.416 118.442 301.991 113.844C304.382 109.246 311.739 100.602 314.497 102.258C315.417 102.809 317.072 104.649 318.727 107.039C322.038 111.453 325.532 117.339 325.532 117.339L332.889 124.328Z" fill="#E59973"/>
<path d="M494 62.7155C479.47 78.5324 458.688 79.0841 458.688 79.0841C458.688 79.0841 457.952 76.5093 457.033 72.831C454.826 64.9225 451.147 51.1288 448.94 42.1169C445.63 28.8749 447.285 25.3805 450.779 22.4378C459.975 15.2651 481.861 44.6917 490.322 57.1981C492.529 60.6925 494 62.7155 494 62.7155Z" fill="#706C6C"/>
<path d="M494 62.7156C479.471 78.5324 458.688 79.0842 458.688 79.0842C458.688 79.0842 457.952 76.5093 457.033 72.831C465.309 71.1757 481.126 67.1296 490.322 57.382C492.529 60.6925 494 62.7156 494 62.7156Z" fill="#A5A5A5"/>
<path d="M247.368 147.869L450.964 25.7483C452.803 24.6448 455.01 25.1966 456.113 26.8518C457.401 28.691 456.849 31.2658 455.01 32.3693L251.782 155.226C249.575 156.513 246.632 155.777 245.529 153.386C244.609 151.363 245.345 148.972 247.368 147.869Z" fill="#6B3910"/>
<path d="M332.889 124.328C332.153 126.535 331.602 128.558 330.866 130.213C328.107 127.27 324.245 123.224 323.141 121.385C321.67 118.994 319.647 111.086 318.544 107.039C321.854 111.453 325.348 117.339 325.348 117.339L332.889 124.328Z" fill="#FFB78F"/>
<path d="M297.209 113.293C297.025 113.66 295.922 115.867 297.209 118.626C298.497 121.385 299.416 123.04 300.336 123.408C301.255 123.776 302.911 123.776 302.911 121.753C302.911 121.753 304.198 123.04 305.669 121.753C307.141 120.465 306.589 118.994 306.589 118.994C306.589 118.994 308.244 120.465 309.899 118.81C311.371 117.155 311.003 115.316 311.003 115.316C311.003 115.316 313.026 116.971 314.681 115.684C316.153 114.396 315.417 112.189 313.946 109.063C312.474 105.752 314.313 103.729 313.578 102.442C312.842 101.154 308.98 100.235 307.876 103.361C307.876 103.361 303.462 102.442 302.911 107.223C302.911 107.223 298.864 108.511 298.864 111.637L297.209 113.293Z" fill="#FFB78F"/>
<path d="M324.981 120.098C324.981 120.281 324.981 120.281 324.797 120.465C323.693 122.305 319.095 126.351 316.153 124.328C314.865 123.592 314.681 121.569 314.865 119.546C315.049 117.891 315.601 116.051 315.969 114.764C316.337 113.66 316.704 112.925 316.704 112.925C316.704 112.925 310.635 115.684 307.876 114.58C306.957 114.212 306.773 112.925 307.509 112.189C308.06 111.821 308.612 111.27 309.348 110.718C311.371 109.063 313.946 107.223 315.417 106.856C317.992 106.12 321.854 107.223 324.429 108.511C326.82 109.798 325.532 118.442 324.981 120.098Z" fill="#FFB78F"/>
<path d="M316.52 112.741C316.52 112.741 310.451 115.5 307.692 114.396C306.773 114.028 306.589 112.741 307.325 112.005C307.876 111.637 308.428 111.086 309.164 110.534C309.164 111.453 309.164 113.66 312.29 112.189C316.153 110.35 318.544 110.534 318.544 110.534C318.544 110.534 317.072 112.189 315.785 114.58C316.337 113.66 316.52 112.741 316.52 112.741Z" fill="#E59973"/>
<path d="M324.797 120.465C323.693 122.305 319.095 126.351 316.153 124.328C314.865 123.592 314.681 121.569 314.865 119.546C316.153 121.753 321.486 122.305 324.797 120.465Z" fill="#E59973"/>
<path d="M375.19 127.638C369.121 139.961 360.477 167.548 351.649 166.812C342.821 166.077 321.118 138.489 321.118 138.489C320.935 134.443 322.038 131.316 323.693 129.109C327.556 123.592 334.36 122.672 334.36 122.672L347.051 133.34C347.051 133.34 352.936 121.385 356.982 105.936C361.028 90.487 367.098 85.7052 367.098 85.7052L369.121 86.8087L370.04 87.3604C377.765 93.0618 381.443 115.5 375.19 127.638Z" fill="#D8C7BA"/>
<path d="M375.19 127.638C369.121 139.961 360.477 167.548 351.649 166.812C342.821 166.077 321.118 138.489 321.118 138.489C320.935 134.443 322.038 131.316 323.693 129.109C328.843 133.707 341.533 144.926 346.499 148.421C352.752 153.019 361.212 132.788 361.212 132.788C361.212 132.788 353.12 139.777 351.465 140.144C349.809 140.512 359.741 118.074 363.971 103.545C365.626 98.0276 367.098 91.9583 369.488 86.8087L370.408 87.3604C377.765 93.0618 381.443 115.5 375.19 127.638Z" fill="#C4B2A5"/>
<path d="M383.098 354.223C386.041 365.81 385.857 377.213 385.857 377.213C385.857 377.213 324.245 380.523 323.693 379.42C323.325 378.5 322.957 375.006 325.348 372.431C326.268 371.328 327.555 370.408 329.578 370.04C336.016 368.201 359.741 357.718 361.396 353.672C361.396 353.488 361.396 353.488 361.396 353.488C361.948 349.626 363.603 323.877 363.603 322.59L387.512 322.038L383.098 354.223Z" fill="#DD890E"/>
<path d="M358.821 362.132C352.2 367.281 337.303 372.799 330.682 372.615C328.107 372.615 326.452 372.431 325.348 372.431C326.268 371.327 327.555 370.408 329.578 370.04C336.016 368.201 359.741 357.718 361.396 353.672L361.58 353.856C361.396 353.856 365.626 357.166 358.821 362.132Z" fill="#EDA024"/>
<path d="M408.846 179.135L408.663 180.79L402.961 221.803C402.961 221.803 397.444 265.759 396.524 288.197C395.604 310.635 396.892 312.842 390.087 324.429C383.282 335.832 362.683 330.314 358.086 323.509C356.43 321.118 356.062 318.36 356.062 314.865C356.062 308.06 358.269 298.129 359.005 281.76C359.925 264.472 363.787 221.068 365.626 195.871C366.362 185.02 366.73 177.663 366.362 177.296L407.743 179.135H408.846Z" fill="#25596E"/>
<path opacity="0.5" d="M363.419 271.093C363.419 271.093 368.569 273.116 375.19 272.932C381.811 272.748 371.328 283.967 368.201 285.439C364.89 287.094 358.453 268.334 363.419 271.093Z" fill="#2F6C7F"/>
<path opacity="0.5" d="M408.663 180.606L402.961 221.62C402.961 221.62 397.444 265.576 396.524 288.013C395.605 310.451 396.892 312.658 390.087 324.245C383.282 335.648 362.683 330.13 358.086 323.326C356.43 320.935 356.062 318.176 356.062 314.681C381.995 315.785 387.512 303.462 386.777 275.875C386.041 252.15 391.558 238.172 392.294 236.333C392.294 236.517 392.11 236.701 391.926 237.069C389.535 241.85 374.27 265.392 377.765 245.345C381.259 225.298 399.835 208.01 387.144 204.883C378.684 202.86 370.224 198.63 365.626 196.055C366.362 185.204 366.73 177.847 366.362 177.48L407.743 179.319C407.927 179.687 408.295 180.054 408.663 180.606Z" fill="#2F6C7F"/>
<path d="M437.722 323.693L447.101 366.178C447.101 366.178 443.423 382.547 444.343 388.984C445.262 395.421 456.481 397.444 463.47 396.524C470.459 395.605 474.321 389.903 474.321 388.064C474.321 386.225 465.493 365.994 465.493 365.994C465.493 365.994 464.021 327.739 462.55 319.095C461.079 310.084 437.722 323.693 437.722 323.693Z" fill="#DD890E"/>
<path d="M450.044 366.73C450.044 366.73 450.228 379.236 450.78 384.018C451.148 388.8 466.045 385.857 467.7 381.811C469.355 377.765 465.677 370.224 464.206 367.833C462.734 365.442 461.447 368.017 450.044 366.73Z" fill="#EDA024"/>
<path d="M464.757 315.049V315.233C464.573 334.728 444.526 331.97 436.802 327.923C429.077 323.877 423.928 295.002 418.042 270.174C412.341 246.08 393.949 182.997 393.398 181.342L434.595 173.617C434.595 173.617 436.066 177.663 437.905 183.181C438.825 185.756 439.745 188.698 440.664 191.641C443.239 199.182 445.63 207.458 446.733 212.792C446.917 213.711 447.101 214.447 447.101 215.182C448.756 225.298 464.757 295.37 464.757 315.049Z" fill="#25596E"/>
<path opacity="0.5" d="M446.918 212.792C445.446 212.608 444.159 212.608 444.159 212.608C444.159 212.608 443.055 213.895 442.687 214.815C442.32 215.734 438.457 215.918 437.354 215.182C436.25 214.447 435.698 209.665 435.698 209.665C435.698 209.665 432.572 208.929 433.123 205.987C433.675 203.412 439.561 193.848 440.848 191.641C443.239 199.366 445.814 207.458 446.918 212.792Z" fill="#2F6C7F"/>
<path opacity="0.5" d="M464.757 315.233C464.573 334.728 444.526 331.97 436.802 327.923C429.077 323.877 423.928 295.002 418.042 270.174C412.341 246.08 393.949 182.997 393.398 181.342L434.595 173.617C434.595 173.617 436.066 177.663 437.905 183.181C432.94 186.675 424.296 191.641 411.605 194.032C390.639 197.894 423.192 235.229 428.158 244.609C433.124 253.989 431.652 249.759 419.698 242.034C407.927 234.126 431.284 274.036 433.307 279.553C435.331 285.071 428.342 278.818 426.686 277.898C425.031 277.162 430.549 297.761 447.653 292.611C464.757 287.278 455.01 299.6 446.365 302.359C439.561 304.382 453.722 319.647 464.757 315.233Z" fill="#2F6C7F"/>
<path d="M435.882 181.158C431.284 184.468 378.133 187.043 367.833 182.813C357.35 178.583 363.971 149.156 363.603 132.236C363.235 115.316 363.603 99.315 367.098 85.8891C367.098 85.8891 387.88 70.2562 398.363 67.6813C408.847 65.1065 434.779 82.0268 436.434 83.6821C436.618 83.866 436.802 85.3373 437.17 87.9122C438.273 100.418 439.009 137.57 439.928 154.858C440.112 157.984 440.296 160.375 440.48 162.031C441.768 173.985 440.48 177.847 435.882 181.158Z" fill="#D8C7BA"/>
<path d="M420.249 123.592C420.249 123.592 413.996 139.777 399.283 146.582C384.57 153.386 375.925 144.558 369.856 141.616C363.787 138.673 371.695 169.571 394.133 170.675C416.755 171.778 431.468 106.672 420.249 123.592Z" fill="#C4B2A5"/>
<path d="M439.929 154.674C436.434 148.972 432.94 142.168 430.549 134.811C423.008 111.453 429.445 87.3604 433.675 86.8087C434.227 86.8087 435.331 86.9926 437.17 87.7282C438.273 100.235 439.009 137.386 439.929 154.674Z" fill="#C4B2A5"/>
<path d="M463.47 172.146L461.999 179.503L460.711 186.308C459.792 192.929 459.792 203.964 459.056 205.803C459.056 205.987 459.056 205.987 458.872 205.987C458.136 206.906 455.929 206.722 455.929 206.722C455.929 206.722 454.642 208.561 453.538 208.929C452.435 209.297 450.78 208.745 450.78 208.745C450.78 208.745 448.94 210.401 447.653 210.217C446.366 210.033 443.975 207.642 443.975 207.642C443.975 207.642 443.239 208.929 442.319 209.849C441.4 210.585 438.089 210.033 437.17 209.297C436.25 208.562 437.354 204.331 437.721 203.412V203.228L434.411 201.205C434.411 201.205 434.043 198.262 434.595 195.136C434.779 193.848 435.147 192.561 435.698 191.457C437.721 187.595 447.469 183.549 447.469 183.549L448.941 176.56L450.596 168.468L463.47 172.146Z" fill="#FFB78F"/>
<path d="M439.193 196.791C439.009 197.526 437.905 203.044 437.905 203.596L434.595 201.573C434.595 201.573 434.227 198.63 434.779 195.503C435.147 196.791 435.882 198.446 436.802 198.998C438.089 199.917 439.009 197.342 439.193 196.791Z" fill="#E59973"/>
<path d="M459.055 205.987C459.055 206.171 459.055 206.171 458.872 206.171C458.136 207.09 455.929 206.906 455.929 206.906C455.929 206.906 454.642 208.745 453.538 209.113C452.435 209.481 450.779 208.929 450.779 208.929C450.779 208.929 448.94 210.585 447.653 210.401C446.366 210.217 443.975 207.826 443.975 207.826L444.894 205.435C444.894 205.435 447.653 207.09 449.308 206.722C450.963 206.354 452.067 205.619 452.067 205.619C452.067 205.619 454.274 206.906 456.113 205.619C456.297 205.803 457.768 206.354 459.055 205.987Z" fill="#E59973"/>
<path d="M463.47 172.146L461.999 179.503C457.033 179.687 451.699 178.031 448.94 176.928L450.596 168.835L463.47 172.146Z" fill="#E59973"/>
<path d="M465.493 173.617C456.113 179.871 445.262 171.594 445.262 171.594L445.63 169.203L449.124 143.455C449.124 143.455 445.446 139.777 440.664 133.891C437.538 129.845 433.859 124.879 430.549 119.178C422.089 104.833 432.756 81.4751 436.434 83.6821C443.239 87.9122 472.298 130.213 472.666 135.547C473.033 140.696 465.493 173.617 465.493 173.617Z" fill="#D8C7BA"/>
<path d="M462.182 143.823C467.148 141.8 462.366 149.708 456.113 150.812C451.515 151.547 447.469 163.134 445.63 169.203L449.124 143.455C449.124 143.455 445.446 139.777 440.664 133.891C443.055 135.73 445.814 137.57 448.205 138.305C453.906 140.328 459.056 139.777 463.286 137.754C467.516 135.73 466.045 141.8 458.32 142.535C450.596 143.271 457.217 145.846 462.182 143.823Z" fill="#C4B2A5"/>
<path d="M375.558 79.8199C375.558 79.8199 371.144 129.293 373.902 185.204L380.707 185.94C380.707 185.94 376.661 109.614 381.443 76.1415L375.558 79.8199Z" fill="#25596E"/>
<path d="M419.146 72.0953C419.146 72.0953 410.686 117.155 416.755 185.388L423.744 184.652C423.744 184.652 420.249 109.246 425.031 75.5897L419.146 72.0953Z" fill="#25596E"/>
<path d="M407.191 71.7275C407.191 71.7275 400.387 81.659 395.237 81.2912C390.271 80.7394 390.271 74.8541 390.271 74.8541C390.271 73.9345 390.455 73.0149 390.455 72.0953C390.639 65.6582 389.352 62.1638 389.352 62.1638C395.421 53.7036 408.111 51.1288 408.111 51.1288C407.743 54.0715 407.375 56.8302 407.191 59.2211C406.64 67.1296 407.191 71.7275 407.191 71.7275Z" fill="#FFB78F"/>
<path d="M407.927 51.1288C407.559 54.0715 407.191 56.8302 407.007 59.2211C405.168 64.7386 400.754 70.624 390.271 72.0953C390.455 65.6582 389.167 62.1638 389.167 62.1638C395.421 53.5197 407.927 51.1288 407.927 51.1288Z" fill="#E59973"/>
<path d="M378.868 15.449C378.868 15.449 381.995 9.37975 384.202 3.86225C384.202 3.86225 391.742 -4.414 407.743 3.12658C423.744 10.6672 422.824 22.8057 422.824 22.8057C422.824 22.8057 418.41 28.691 416.019 35.312C416.019 35.4959 391.742 32.9211 378.868 15.449Z" fill="#FFB03E"/>
<path d="M365.075 18.5756C361.58 26.8518 378.684 30.3462 390.087 34.0246C401.49 37.7029 418.227 52.4162 421.905 39.726C425.583 27.0357 404.617 11.4028 386.041 11.4028C367.466 11.4028 365.075 18.5756 365.075 18.5756Z" fill="#EDA024"/>
<path d="M407.743 39.726C406.639 52.0484 404.984 63.4512 392.846 64.3708C380.707 65.2904 376.845 61.0603 377.397 52.4162C377.765 46.347 376.477 41.0134 375.742 36.5994C375.374 34.5763 375.19 32.7372 375.374 31.0819C375.558 25.3805 379.236 21.3343 387.512 20.9665C391.558 20.7826 395.421 21.5182 398.731 22.9896C404.616 25.9322 408.479 31.6337 407.743 39.726Z" fill="#FFB78F"/>
<path d="M398.547 22.9896C398.363 24.277 398.179 25.5644 397.444 26.8518C391.926 39.3582 378.868 37.1512 375.558 36.4155C375.19 34.3924 375.006 32.5532 375.19 30.898C375.374 25.1966 379.052 21.1504 387.328 20.7826C391.375 20.5987 395.237 21.3343 398.547 22.9896Z" fill="#E59973"/>
<path d="M394.317 20.0469C394.317 19.863 394.317 19.863 394.317 20.0469C388.8 14.1616 370.96 15.8168 369.672 24.8287C369.672 25.0127 369.672 25.1966 369.672 25.5644C369.121 35.312 376.109 35.1281 385.305 34.2085C394.501 33.2889 397.811 26.8518 397.811 26.8518C397.811 26.8518 398.363 34.9442 399.835 37.1512C400.386 37.8868 401.122 38.8064 402.042 39.726C403.513 41.3812 405.168 42.8526 405.168 42.8526L404.8 46.347V47.0827C402.409 52.6002 395.604 54.0715 395.604 54.0715C395.604 54.0715 392.478 51.4967 389.351 50.2092C386.225 48.9218 384.018 49.2897 384.018 49.2897C384.018 49.2897 382.363 49.1057 379.42 50.3932C376.477 51.6806 375.558 54.8072 375.374 55.175C374.822 56.6463 374.454 57.9337 374.27 59.0372C373.167 66.0261 378.684 68.9687 391.926 68.0492C393.581 67.8652 395.053 67.6813 396.34 67.3135C398.363 66.5778 400.018 65.6582 401.306 64.5547C407.191 59.589 407.007 51.1288 407.007 51.1288C413.077 44.8757 413.444 33.2889 413.444 33.2889C407.191 22.8057 395.053 20.0469 394.317 20.0469ZM379.236 55.175C382.914 54.4393 384.018 51.8645 384.018 51.8645C384.018 51.8645 384.386 54.0715 389.167 54.4393C390.823 54.6232 391.742 55.175 392.294 55.9107C393.581 57.5659 392.478 59.9568 389.167 59.9568C384.57 59.7729 385.305 56.8302 385.305 56.8302L383.282 57.0142C383.282 57.0142 383.282 59.9568 380.707 59.4051C378.5 58.6694 379.236 55.175 379.236 55.175Z" fill="#B2AFAD"/>
<path d="M399.283 63.2673C399.283 63.2673 397.996 65.2904 396.34 67.1296C395.053 67.4974 393.582 67.8652 391.926 67.8652C378.868 68.7848 373.167 65.8422 374.27 58.8533C374.454 60.1407 375.006 62.5317 375.926 63.4512C377.213 64.7387 378.868 64.7387 379.052 64.7387C379.052 64.7387 378.868 64.5547 378.684 62.8995C378.684 62.8995 379.788 64.7386 383.098 65.4743C383.098 65.4743 382.363 64.003 382.363 61.9799C382.363 61.9799 384.202 64.5547 387.512 65.6582L387.328 63.6351C387.328 63.6351 388.432 65.2904 390.823 65.8422C393.03 66.3939 395.789 64.003 395.973 63.6351C395.973 63.8191 395.789 64.5547 395.053 65.4743C394.869 65.6582 396.34 65.4743 399.283 63.2673Z" fill="#999796"/>
<path d="M394.685 57.1981C394.685 57.1981 393.949 56.4624 392.478 55.9107C391.926 55.175 390.823 54.6232 389.351 54.4393C384.57 54.0715 384.202 51.8645 384.202 51.8645C384.202 51.8645 383.098 54.4393 379.42 55.175C379.42 55.175 378.868 55.3589 377.397 54.6232C377.397 54.6232 378.5 54.6232 379.972 53.5197L379.604 54.0715C379.604 54.0715 382.914 52.968 383.65 50.5771L383.834 51.3127L384.018 50.0253C384.018 50.0253 385.489 52.6002 388.616 52.7841C388.616 52.7841 388.248 52.968 387.512 52.968C387.512 52.968 389.719 53.3358 391.926 54.0715C394.133 54.8072 394.685 57.1981 394.685 57.1981Z" fill="#999796"/>
<path d="M413.444 33.105C413.444 33.105 413.077 44.6917 407.007 50.9449C407.007 50.9449 407.007 59.4051 401.306 64.3708C403.329 61.0603 403.881 57.7498 403.881 57.7498C402.409 59.589 400.57 60.6925 400.202 60.8764C400.386 60.6925 401.122 59.9568 402.593 58.1177C404.432 55.7267 405.168 51.4967 405.168 51.4967L404.065 52.2323C404.984 50.2092 404.984 48.0022 404.984 46.1631C404.984 44.3239 404.616 43.0365 404.616 43.0365C403.513 41.933 402.777 40.8295 402.042 39.726C399.467 35.6798 399.283 32.0015 399.283 32.0015C401.306 35.8637 404.984 38.8064 404.984 38.8064C401.306 34.3924 400.202 27.7714 400.202 27.7714C403.145 34.5763 407.559 37.3351 407.559 37.3351C405.168 34.2085 403.881 29.7945 403.881 29.7945C405.904 32.0015 409.03 34.9442 409.398 35.312C409.398 35.1281 408.663 33.6567 406.272 29.6106C403.513 25.3805 395.237 20.4147 394.685 20.2308C395.053 20.0469 407.191 22.8057 413.444 33.105Z" fill="#999796"/>
<path d="M397.812 26.6679C397.812 26.6679 394.685 33.2889 385.305 34.0246C376.109 34.9442 369.121 35.1281 369.672 25.3805C369.672 25.1966 369.672 25.0127 369.672 24.6448C370.408 26.6679 371.879 29.2427 374.086 30.5302C377.765 32.5532 385.673 29.7945 387.696 24.0931C387.696 24.0931 387.512 29.2427 383.65 31.2658C383.65 31.2658 391.374 30.1623 393.582 23.3574C393.582 23.3574 393.949 27.4036 390.455 30.1623C390.455 30.1623 396.156 28.691 398.179 22.2539C398.179 22.6217 398.363 23.9092 397.812 26.6679Z" fill="#999796"/>
<path d="M405.536 45.6113C405.72 41.933 409.582 39.5421 412.709 41.1973C412.709 41.1973 412.709 41.1973 412.893 41.1973C417.49 43.5882 412.709 54.6232 404.801 52.0484L405.536 45.6113Z" fill="#FFB78F"/>
<path d="M408.847 44.3239C408.847 44.3239 408.479 45.4274 408.479 46.7148C408.479 48.0022 407.007 48.9218 407.007 48.9218C407.007 48.9218 407.743 50.9449 411.238 48.1862C414.732 45.4274 413.628 43.2204 411.421 42.8526C409.03 42.6687 408.847 44.3239 408.847 44.3239Z" fill="#E89C77"/>
<path d="M411.237 43.0365C411.237 43.0365 409.214 42.4847 407.743 45.2435C407.743 45.2435 408.663 45.9792 407.743 47.4505C407.007 48.9218 406.456 49.6575 406.456 49.6575C406.456 49.6575 408.663 48.1862 409.03 46.8987C409.214 45.6113 408.847 45.2435 408.847 45.2435C408.847 45.2435 409.582 43.0365 411.237 43.0365Z" fill="#5D291B"/>
<path d="M377.397 38.9903C377.397 38.9903 378.316 36.5994 382.73 36.4155L383.466 38.6225C383.466 38.6225 379.236 38.2547 377.397 38.9903Z" fill="#B2AFAD"/>
<path d="M380.891 40.8295C379.42 41.0134 379.052 45.0596 381.259 45.0596C383.098 45.0596 382.73 40.4617 380.891 40.8295Z" fill="#5D291B"/>
<path d="M381.259 41.3812C380.523 41.5652 380.339 43.5882 381.443 43.5882C382.363 43.5882 382.179 41.1973 381.259 41.3812Z" fill="white"/>
<path d="M387.144 38.6225L387.88 36.0477C387.88 36.0477 392.846 34.9442 396.524 38.4386C396.34 38.6225 391.374 37.3351 387.144 38.6225Z" fill="#B2AFAD"/>
<path d="M388.984 39.9099C387.696 40.0938 387.144 44.3239 389.719 44.5078C391.926 44.6918 391.558 39.5421 388.984 39.9099Z" fill="#5D291B"/>
<path d="M389.351 40.6456C388.616 40.8295 388.432 43.0365 389.719 43.0365C391.007 43.0365 390.823 40.4617 389.351 40.6456Z" fill="white"/>
<path d="M384.202 40.8295C384.202 40.8295 384.018 45.0596 382.73 46.7148C381.259 48.1862 386.041 48.3701 386.041 48.3701C386.041 48.3701 384.018 47.4505 383.834 47.0827C383.466 46.5309 384.937 45.2435 384.202 40.8295Z" fill="#5D291B"/>
<path d="M184.284 376.109C183.549 377.949 128.926 375.374 128.926 372.983C128.926 365.074 140.696 320.199 140.696 320.199L165.157 328.291L153.386 355.511C153.386 355.511 179.503 367.649 181.894 368.937C182.813 369.305 183.549 370.224 183.917 371.144C184.652 372.799 184.836 374.822 184.284 376.109Z" fill="#DD890E"/>
<path d="M183.733 371.144C182.445 372.247 181.158 372.983 180.054 372.799C176.744 372.063 143.087 367.833 141.8 363.787C140.512 359.925 153.203 355.511 153.203 355.511C153.203 355.511 179.319 367.649 181.71 368.937C182.629 369.305 183.365 370.224 183.733 371.144Z" fill="#EDA024"/>
<path d="M185.756 273.3C182.077 290.956 173.801 320.015 168.835 327.555C162.031 337.671 140.696 334.728 138.305 322.222C135.914 309.716 149.524 268.886 149.524 268.886C149.524 268.886 108.327 225.298 106.488 220.516C104.465 215.734 105.2 194.032 107.039 194.4C109.43 194.952 143.823 191.089 146.214 193.48C147.501 194.768 158.352 210.401 168.652 226.401C178.399 241.483 187.595 256.748 187.963 260.426C187.779 262.265 187.043 267.047 185.756 273.3Z" fill="#25596E"/>
<path opacity="0.5" d="M185.756 273.3C182.077 290.956 173.801 320.015 168.835 327.555C162.031 337.671 140.696 334.728 138.305 322.222C135.914 309.716 149.524 268.886 149.524 268.886C149.524 268.886 108.327 225.298 106.488 220.516C104.465 215.734 105.2 194.032 107.039 194.4C109.43 194.952 143.823 191.089 146.214 193.48C147.501 194.768 158.352 210.401 168.651 226.401C166.812 239.276 164.605 252.15 163.502 256.196C160.743 265.392 157.8 268.15 162.03 274.404C165.709 280.105 178.767 276.978 185.756 273.3Z" fill="#2F6C7F"/>
<path d="M110.718 389.904C110.718 389.904 54.4393 391.375 53.8876 388.064C53.3358 384.754 70.4401 326.084 70.8079 324.613L94.717 334.544L80.9233 368.017C80.9233 368.017 103.913 380.34 107.959 382.363C108.879 382.731 109.43 383.466 109.982 384.018C111.453 386.409 110.718 389.904 110.718 389.904Z" fill="#DD890E"/>
<path d="M109.798 384.018C106.12 385.122 102.442 384.018 96.7401 382.731C89.9352 381.259 75.7737 380.156 72.0953 377.029C68.417 373.903 75.7737 369.489 80.9233 368.017C80.9233 368.017 103.913 380.34 107.959 382.363C108.879 382.731 109.43 383.282 109.798 384.018Z" fill="#EDA024"/>
<path d="M121.753 217.941C119.73 240.931 115.867 277.898 114.948 283.967C113.477 292.611 98.3954 333.809 95.6366 338.223C92.694 342.637 82.0268 344.108 75.7737 341.533C69.5205 339.142 67.1296 333.257 67.1296 327.555C67.1296 321.67 80.1876 281.944 80.1876 279.185C80.1876 276.243 74.3023 226.769 75.7737 215.182C76.1415 212.424 76.8771 209.297 77.7967 206.171C80.9233 195.136 86.073 182.813 86.073 182.813C86.073 182.813 122.856 197.894 123.408 199.734C123.408 200.285 122.672 207.642 121.753 217.941Z" fill="#25596E"/>
<path opacity="0.5" d="M121.753 217.941C114.764 211.136 105.016 202.308 99.3149 201.205C93.2457 199.917 84.0499 203.412 77.6128 206.171C80.7394 195.136 85.889 182.813 85.889 182.813C85.889 182.813 122.672 197.894 123.224 199.734C123.408 200.285 122.672 207.642 121.753 217.941Z" fill="#2F6C7F"/>
<path opacity="0.5" d="M108.879 286.174C107.591 286.174 99.6828 288.565 90.8548 287.278C82.0268 285.99 89.5674 318.544 95.0849 317.44C100.786 316.337 114.58 286.358 108.879 286.174Z" fill="#2F6C7F"/>
<path d="M180.238 147.869C180.974 121.937 177.112 109.982 177.112 109.982C149.156 109.246 156.145 156.697 154.49 179.503C153.938 186.675 153.938 192.193 153.386 196.239C156.697 205.435 174.721 195.871 179.687 180.974C179.687 176.744 180.054 152.099 180.238 147.869Z" fill="#579E7B"/>
<path d="M172.882 143.271C168.835 151.547 164.421 162.031 160.927 171.41C155.961 184.468 152.099 195.32 152.099 195.32C152.099 195.32 137.754 204.699 110.166 199.55C82.5786 194.4 81.8429 180.606 81.8429 180.606C91.2226 135.73 112.005 94.7171 118.994 92.1422C119.362 91.9583 119.546 91.9583 119.914 91.7744C127.454 89.1996 146.398 84.7856 155.777 89.1996C182.997 102.442 182.629 123.592 172.882 143.271Z" fill="#79BC9C"/>
<path d="M160.743 171.594C155.777 184.652 151.915 195.503 151.915 195.503C151.915 195.503 137.57 204.883 109.982 199.733C82.3946 194.584 81.6589 180.79 81.6589 180.79C91.0387 135.914 111.821 94.901 118.81 92.3262C119.178 92.1422 119.362 92.1422 119.73 91.9583C121.753 93.2457 123.96 94.7171 125.983 96.5562C126.718 97.108 126.167 115.5 114.212 122.121C102.074 128.742 101.89 134.627 111.453 153.754C121.017 172.882 146.765 164.238 150.444 166.261C154.122 168.284 146.398 173.985 130.213 174.721C116.051 175.273 141.064 183.917 160.743 171.594Z" fill="#579E7B"/>
<path d="M91.5905 176.928L93.0618 176.744C93.0618 176.744 101.338 180.974 103.361 182.629C105.2 184.468 104.649 190.905 104.649 192.561C104.649 194.216 103.545 196.055 100.051 194.768C96.5562 193.48 94.1653 192.193 93.7975 190.17C93.2457 188.331 98.3954 188.331 98.3954 188.331C98.3954 188.331 87.3604 185.94 91.5905 176.928Z" fill="#D17E46"/>
<path d="M50.3931 145.846C50.3931 145.846 43.5882 144.558 44.6917 151.547L93.4296 194.216L99.4988 188.331L50.3931 145.846Z" fill="#533E3D"/>
<path d="M102.993 190.905C102.993 195.136 98.7632 199.366 98.7632 199.366C98.7632 199.366 94.717 202.676 93.0618 201.757C91.4065 200.837 90.6709 199.182 90.1191 199.182C89.5674 199.182 88.4638 199.366 87.5443 198.814C86.6247 198.262 85.3373 196.607 85.3373 196.607C85.3373 196.607 83.682 196.607 82.3946 195.687C81.2911 194.768 80.3715 192.745 80.3715 192.745C80.3715 192.745 76.6932 192.929 76.5093 190.722C76.3253 189.066 77.4289 181.342 77.9806 177.48C78.1645 176.192 78.3484 175.273 78.3484 175.273L77.061 165.525L91.7744 164.605L92.6939 175.089L92.8779 176.744C92.8779 176.56 102.993 186.675 102.993 190.905Z" fill="#D17E46"/>
<path d="M92.6939 175.089C89.9352 176.928 85.1533 178.951 78.3484 177.663C78.5324 176.376 78.7163 175.456 78.7163 175.456L77.061 165.525L91.7743 164.605L92.6939 175.089Z" fill="#C66F34"/>
<path d="M75.5897 160.927L77.4289 173.801C77.4289 173.801 87.9121 178.031 93.6135 171.962L92.3261 159.456L75.5897 160.927Z" fill="#ACE8CA"/>
<path d="M118.994 117.707C108.143 121.753 92.694 124.144 92.694 124.144L96.0045 153.386C96.3723 155.593 96.0045 157.8 95.0849 159.824C93.4296 163.686 89.9352 166.628 85.3373 167.18C85.1534 167.18 84.9695 167.18 84.6016 167.18C78.3485 167.732 72.831 163.134 71.7275 156.881C69.8883 145.294 66.9456 123.408 68.0491 111.821C68.0491 111.821 68.6009 111.453 69.7044 111.086C77.061 107.407 108.327 91.9583 119.73 90.8548C132.788 89.5674 132.788 99.6828 132.788 99.6828C135.179 107.959 129.477 113.844 118.994 117.707Z" fill="#79BC9C"/>
<path d="M95.2688 159.824C93.6135 163.686 90.1191 166.628 85.5212 167.18C85.3373 167.18 85.1533 167.18 84.7855 167.18C78.5324 167.732 73.0149 163.134 71.9114 156.881C70.0722 145.294 67.1295 123.408 68.233 111.821C68.233 111.821 68.7848 111.453 69.8883 111.086C71.1757 121.569 73.0149 148.972 76.3254 156.145C80.5554 164.789 79.8198 156.697 81.475 156.145C83.1303 155.593 81.8429 158.72 84.6016 162.398C86.8086 164.973 91.5904 163.134 95.2688 159.824Z" fill="#579E7B"/>
<path d="M306.957 340.43L300.704 326.268C299.416 323.326 295.922 322.038 292.979 323.509L270.909 335.096C269.99 335.648 268.702 335.464 267.783 334.728L102.258 190.722C100.602 189.25 98.2114 189.434 96.5562 190.905C94.717 192.561 94.9009 195.503 96.7401 197.159L257.483 338.223C258.955 339.51 258.587 341.717 256.931 342.637L236.517 353.488C233.942 354.775 232.838 357.902 233.942 360.477L240.747 376.661C241.299 377.949 242.77 378.317 243.873 377.765L245.529 376.845C246.448 376.294 246.816 375.19 246.448 374.27L241.115 358.638L246.816 355.879L252.701 369.856C253.253 371.144 254.541 371.512 255.828 370.96L257.851 369.856C258.771 369.305 259.138 368.201 258.771 367.098L253.437 352.752L259.506 349.442L265.759 362.684C266.311 363.787 267.783 364.155 268.886 363.603L270.541 362.684C271.461 362.132 271.829 361.028 271.461 359.925L265.576 345.763L273.116 341.533L279.369 354.959C279.921 356.063 281.208 356.614 282.496 355.879L284.335 354.775C285.255 354.224 285.806 352.936 285.255 352.017L279.185 338.775L286.542 335.28L292.979 347.419C293.531 348.522 294.818 348.89 295.922 348.338L296.29 348.154C297.393 347.603 297.761 346.315 297.209 345.212L291.14 333.073L297.025 329.763L302.727 341.717C303.095 342.453 303.83 343.005 304.75 343.005C305.118 343.005 305.485 343.005 305.853 342.637C307.141 342.637 307.509 341.533 306.957 340.43Z" fill="#533E3D"/>
<path d="M120.281 52.0484C120.281 52.0484 146.398 75.2219 181.342 77.245C216.286 79.2681 235.965 68.2331 235.965 68.2331C235.965 68.2331 212.975 52.2323 177.112 49.1057C141.432 46.1631 120.281 52.0484 120.281 52.0484Z" fill="#B76800"/>
<path d="M170.491 78.9002L164.789 95.8205L163.686 99.131C163.686 99.131 158.904 104.465 151.915 99.4989C145.11 94.5331 146.949 89.7513 146.949 89.7513L156.697 71.9114L158.352 68.7848C165.341 68.0492 170.491 78.9002 170.491 78.9002Z" fill="#D17E46"/>
<path d="M170.491 78.9003L164.789 95.8206C156.881 91.2227 156.145 80.1877 156.881 71.7275L158.536 68.6009C165.341 68.0492 170.491 78.9003 170.491 78.9003Z" fill="#C66F34"/>
<path d="M192.377 69.1527C192.193 69.3366 192.193 69.5205 192.009 69.7044C185.02 81.2912 175.824 97.6598 166.628 92.5101C157.433 87.3604 155.042 73.9345 161.295 62.7156C166.077 54.0715 172.146 48.7379 178.399 48.0023C180.238 47.8183 182.261 48.0023 184.101 48.7379C188.147 50.5771 198.814 57.9338 192.377 69.1527Z" fill="#D17E46"/>
<path d="M183.917 72.2792C183.917 72.2792 182.261 79.6359 181.526 81.4751C180.606 83.4982 175.824 80.1877 175.824 80.1877C175.824 80.1877 179.319 80.9233 180.238 80.7394C181.342 80.7394 183.917 72.2792 183.917 72.2792Z" fill="#2B2625"/>
<path d="M173.249 63.8191C173.249 63.8191 180.238 63.8191 180.974 68.2331L173.249 63.8191Z" fill="#2B2625"/>
<path d="M177.112 68.6009C175.273 67.8652 173.066 72.4632 174.721 73.3827C176.376 74.3023 179.503 69.5205 177.112 68.6009Z" fill="#2B2625"/>
<path d="M177.48 69.7044C176.928 69.1527 176.376 70.4401 176.744 70.8079C177.296 71.1757 177.847 70.0723 177.48 69.7044Z" fill="white"/>
<path d="M185.94 71.1757C185.756 71.1757 189.802 72.831 189.802 72.831C189.802 72.831 189.25 69.8883 185.94 71.1757Z" fill="#2B2625"/>
<path d="M186.675 73.3828C185.02 72.831 182.997 76.8772 184.652 77.6128C186.124 78.3485 188.698 74.1184 186.675 73.3828Z" fill="#2B2625"/>
<path d="M186.858 74.3022C186.307 73.9349 185.756 74.8531 186.307 75.2204C186.674 75.5877 187.225 74.6695 186.858 74.3022Z" fill="white"/>
<path d="M167.18 80.5555C167.18 80.5555 171.778 85.5212 177.48 85.8891C177.48 86.073 168.652 92.1422 167.18 80.5555Z" fill="white"/>
<path d="M192.377 69.1527C185.572 69.8883 181.526 60.6925 179.319 57.9337C176.928 54.9911 172.882 55.9106 172.882 55.7267C173.617 53.7036 175.273 50.2092 178.399 48.1861C180.238 48.0022 182.261 48.1861 184.101 48.9218C188.147 50.5771 198.814 57.9337 192.377 69.1527Z" fill="#C66F34"/>
<path d="M160.927 68.417C160.927 68.417 164.054 63.6352 165.893 63.0834C167.732 62.5317 171.226 63.2673 173.985 56.2785C173.985 56.2785 176.928 54.2554 180.606 56.8303C184.284 59.4051 195.319 74.3023 206.906 58.8533C206.906 58.8533 199.917 57.9338 190.905 48.9218C178.767 36.7833 172.698 45.9792 172.698 45.9792C172.698 45.9792 162.398 40.4617 159.088 59.4051L160.927 68.417Z" fill="#2B2625"/>
<path d="M155.777 45.7952C155.777 45.7952 162.766 36.5994 168.1 28.3232C173.433 20.0469 183.181 32.3693 187.411 33.105C191.641 33.8407 199.733 29.6106 202.492 32.1854C205.067 34.5763 205.067 52.4162 205.067 52.4162C205.067 52.4162 171.042 40.4617 155.777 45.7952Z" fill="#FFB03E"/>
<path d="M120.281 52.0484C120.281 52.0484 159.088 48.9218 184.652 52.2323C210.217 55.5428 236.149 68.2331 236.149 68.2331C236.149 68.2331 212.424 45.7952 175.457 44.14C138.121 42.6687 120.281 52.0484 120.281 52.0484Z" fill="#EDA024"/>
<path d="M162.582 64.1869C162.582 64.1869 163.502 54.8072 156.329 55.5428C149.34 56.4624 149.34 71.7275 159.272 71.1758L162.582 64.1869Z" fill="#D17E46"/>
<path d="M158.904 59.4051C158.904 59.4051 157.617 57.9337 155.777 58.1176C153.938 58.3016 152.835 62.1638 153.754 64.9226C154.49 67.4974 158.168 68.6009 158.168 68.6009C158.168 68.6009 156.697 66.0261 157.8 65.1065C158.904 64.1869 160.191 63.0834 160.191 63.0834C160.191 63.0834 159.824 60.5086 158.904 59.4051Z" fill="#C66F34"/>
<path d="M155.777 58.1177C159.088 57.9337 160.743 59.7729 160.743 63.6352C160.743 63.6352 158.72 64.1869 158.168 65.2904C157.617 66.3939 158.168 68.6009 158.168 68.6009C158.168 68.6009 155.777 65.6582 156.697 64.5547C157.617 63.4512 159.64 62.7156 159.64 62.7156C159.64 62.7156 160.007 60.5086 158.536 59.2212C156.881 58.3016 155.777 58.1177 155.777 58.1177Z" fill="#2B2625"/>
<path d="M156.145 185.94C153.57 193.296 150.444 208.194 153.57 213.343C158.352 220.884 169.019 221.62 173.249 219.964C177.479 218.125 183.181 212.424 182.445 203.78C181.893 196.975 180.054 188.331 179.87 169.939C179.87 166.996 177.296 164.789 174.353 165.341C168.468 166.077 160.191 173.985 156.145 185.94Z" fill="#79BC9C"/>
<path d="M158.352 216.286L156.145 233.206C156.145 233.206 158.536 238.724 163.686 239.827C168.835 240.931 173.065 236.701 173.065 236.701L174.537 217.573C174.721 217.389 167.364 211.688 158.352 216.286Z" fill="#ACE8CA"/>
<path d="M158.72 232.103C158.72 232.103 153.386 236.701 151.915 239.827C150.444 242.954 150.628 250.127 160.375 252.885C169.387 255.46 172.698 248.655 172.882 243.506C173.066 238.356 172.146 235.229 172.146 235.229C172.146 235.229 168.1 230.448 158.72 232.103Z" fill="#C66F34"/>
<path d="M172.146 250.127C169.203 251.046 167.364 253.989 167.364 256.38C167.364 256.564 167.364 256.564 167.364 256.748C167.548 258.771 169.019 260.242 169.019 260.242L167.18 260.794C161.847 262.081 160.191 257.667 160.191 257.667C155.41 257.483 155.593 252.885 155.593 252.885C155.593 252.885 151.731 253.989 150.444 252.15C148.972 250.494 150.076 247.736 150.076 247.736C150.076 247.736 146.398 246.816 145.662 244.425C145.478 244.057 145.478 243.506 145.478 243.138C145.846 240.931 148.053 238.54 149.34 237.068C150.444 235.597 153.754 234.678 155.777 235.413C156.697 235.781 157.249 236.517 157.433 237.436V238.172C161.847 237.069 161.847 241.85 161.847 241.85C167.548 240.747 166.812 245.529 166.812 245.529C171.778 244.609 175.089 249.207 172.146 250.127Z" fill="#D17E46"/>
<path d="M169.203 260.058L167.364 260.61C162.031 261.897 160.375 257.483 160.375 257.483C155.593 257.299 155.777 252.701 155.777 252.701C155.777 252.701 151.915 253.805 150.628 251.966C149.156 250.311 150.26 247.552 150.26 247.552C150.26 247.552 146.582 246.632 145.846 244.241C145.662 243.873 145.662 243.322 145.662 242.954C146.398 244.241 147.685 245.345 150.26 245.345C150.26 245.345 151.915 242.954 153.57 241.483C153.57 241.483 150.996 246.08 152.283 248.287C153.57 250.311 155.961 249.023 155.961 249.023C155.961 249.023 157.249 247 158.72 245.161C158.536 245.529 157.065 249.391 158.536 251.414C160.007 253.437 160.559 253.069 160.559 253.069C160.559 253.069 160.007 251.23 162.214 248.655C162.214 248.655 161.111 256.564 164.973 256.748C165.893 256.748 166.628 256.564 167.364 256.38C167.548 258.771 169.203 260.058 169.203 260.058Z" fill="#C66F34"/>
<path d="M175.089 247.92C174.905 248.287 174.905 248.655 174.537 249.023C172.882 251.782 169.019 250.862 164.238 249.943C158.904 248.839 158.536 246.816 160.375 245.897C160.375 245.897 160.375 245.897 160.559 245.897C162.214 244.977 165.709 244.793 166.445 244.793C166.261 244.793 165.525 244.241 163.502 242.402C162.95 241.85 162.582 241.115 162.398 240.563C161.847 238.172 163.318 235.413 163.318 235.413C166.261 232.655 170.675 234.31 172.146 235.597C173.249 236.701 176.192 243.873 175.089 247.92Z" fill="#D17E46"/>
<path d="M163.318 242.218C162.766 241.666 162.398 240.931 162.214 240.379C163.318 241.483 164.973 242.586 166.996 243.138C170.675 244.057 170.675 244.977 170.675 244.977C170.675 244.977 169.203 244.793 166.445 244.609H166.261C166.077 244.425 165.341 244.057 163.318 242.218Z" fill="#C66F34"/>
<path d="M174.537 249.023C172.882 251.782 169.019 250.862 164.238 249.943C158.904 248.839 158.536 246.816 160.375 245.897C161.663 246.264 164.973 246.264 167.548 246.632C169.939 247 173.433 247.736 174.537 249.023Z" fill="#C66F34"/>
</g>
<defs>
<clipPath id="clip0_1_1436">
<rect width="494" height="414.732" fill="white"/>
</clipPath>
</defs>
</svg>
